<svg xmlns="http://www.w3.org/2000/svg" viewBox="0 0 960 240" role="img" aria-labelledby="title desc">
  <title id="title">HVAC Runtime logo</title>
  <desc id="desc">HVAC Runtime wordmark with a runtime timeline icon.</desc>
  <rect width="960" height="240" rx="40" fill="#f8fafc"/>
  <g transform="translate(48 40)">
    <rect width="160" height="160" rx="36" fill="#14b8a6"/>
    <rect x="34" y="28" width="92" height="104" rx="18" fill="#ffffff"/>
    <path fill="#e2e8f0" d="M50 46h14v70H50zM78 46h14v70H78zM106 46h14v70h-14z"/>
    <path fill="#06b6d4" d="M50 58h70v14H50zM50 88h70v14H50zM50 118h52v14H50z"/>
    <path fill="#f97316" d="M50 75h36v10H50zM50 105h24v10H50z"/>
    <path fill="#0f172a" opacity=".72" d="M50 140h70a7 7 0 0 1 0 14H50a7 7 0 0 1 0-14Z"/>
  </g>
  <text x="248" y="118" fill="#0f172a" font-family="Inter, Segoe UI, Arial, sans-serif" font-size="54" font-weight="700">HVAC Runtime</text>
  <text x="250" y="164" fill="#475569" font-family="Inter, Segoe UI, Arial, sans-serif" font-size="24">Home Assistant runtime timeline card</text>
</svg>
